<?xml version="1.0" encoding="UTF-8"?>
<svg xmlns="http://www.w3.org/2000/svg" xmlns:xlink="http://www.w3.org/1999/xlink" width="326.802mm" height="113.914mm" viewBox="40.599098 -997.957275 326.801727 113.914490">
    <ellipse transform="matrix(1,0,0,-1,259.801086,-927.598633)" style="stroke:#00e000;stroke-width:0.05mm;fill:none" rx="1.750011" ry="1.749989" cx="0" cy="0"/>
    <ellipse transform="matrix(1,0,0,-1,227.559113,-930.789612)" style="stroke:#00e000;stroke-width:0.05mm;fill:none" rx="1.750011" ry="1.749989" cx="0" cy="0"/>
    <ellipse transform="matrix(1,0,0,-1,223.776093,-892.088623)" style="stroke:#00e000;stroke-width:0.05mm;fill:none" rx="1.750011" ry="1.749989" cx="0" cy="0"/>
    <ellipse transform="matrix(1,0,0,-1,181.159088,-930.570618)" style="stroke:#00e000;stroke-width:0.05mm;fill:none" rx="1.750011" ry="1.749989" cx="0" cy="0"/>
    <ellipse transform="matrix(1,0,0,-1,307.754089,-965.961609)" style="stroke:#00e000;stroke-width:0.05mm;fill:none" rx="1.750011" ry="1.749989" cx="0" cy="0"/>
    <ellipse transform="matrix(1,0,0,-1,246.032104,-965.659607)" style="stroke:#00e000;stroke-width:0.05mm;fill:none" rx="1.750011" ry="1.749989" cx="0" cy="0"/>
    <ellipse transform="matrix(1,0,0,-1,215.746094,-966.207642)" style="stroke:#00e000;stroke-width:0.05mm;fill:none" rx="1.750011" ry="1.749989" cx="0" cy="0"/>
    <ellipse transform="matrix(0.830996,0.556279,0.556279,-0.830996,87.294998,-915.774597)" style="stroke:#00e000;stroke-width:0.05mm;fill:none" rx="1.750011" ry="1.749989" cx="0" cy="0"/>
    <ellipse transform="matrix(0.830996,0.556279,0.556279,-0.830996,46.84,-943.25061)" style="stroke:#00e000;stroke-width:0.05mm;fill:none" rx="1.750011" ry="1.749989" cx="0" cy="0"/>
    <ellipse transform="matrix(0.830996,0.556279,0.556279,-0.830996,119.89801,-963.691589)" style="stroke:#00e000;stroke-width:0.05mm;fill:none" rx="1.750011" ry="1.749989" cx="0" cy="0"/>
    <ellipse transform="matrix(0.830996,0.556279,0.556279,-0.830996,79.39801,-991.226624)" style="stroke:#00e000;stroke-width:0.05mm;fill:none" rx="1.750011" ry="1.749989" cx="0" cy="0"/>
    <ellipse transform="matrix(1,0,0,-1,127.869003,-912.50061)" style="stroke:#00e000;stroke-width:0.05mm;fill:none" rx="1.750011" ry="1.749989" cx="0" cy="0"/>
    <ellipse transform="matrix(1,0,0,-1,156.869003,-912.50061)" style="stroke:#00e000;stroke-width:0.05mm;fill:none" rx="1.750011" ry="1.749989" cx="0" cy="0"/>
    <path transform="matrix(1,0,0,-1,204.000015,-927.50061)" style="stroke:#00e000;stroke-width:0.05mm;fill:none" d="M163.400787,-43.457806L-163.400787,-43.457806"/>
    <path transform="matrix(1,0,0,-1.31062,204.000015,-941.00061)" style="stroke:#00e000;stroke-width:0.05mm;fill:none" d="M-163.400787,-43.457806L-163.400787,43.457806"/>
    <path transform="matrix(0.790875,0,0,-1,238.171005,-927.50061)" style="stroke:#00e000;stroke-width:0.05mm;fill:none" d="M-163.400787,43.457806L163.400787,43.457806"/>
    <path transform="matrix(1,0,0,-1,204.000015,-927.50061)" style="stroke:#00e000;stroke-width:0.05mm;fill:none" d="M163.400787,43.457806L163.400787,-43.457806"/>
    <path transform="matrix(1.00018,0,0,-1,74.77301,-977.953613)" style="stroke:#00e000;stroke-width:0.05mm;fill:none" d="M-34.167763,20L34.167763,20"/>
    <path transform="matrix(1,0,0,-0.674828,74.779007,-984.450623)" style="stroke:#00e000;stroke-width:0.05mm;fill:none" d="M34.167763,20L34.167763,-20"/>
    <ellipse transform="matrix(1,0,0,-1,313.412994,-927.598633)" style="stroke:#00e000;stroke-width:0.05mm;fill:none" rx="1.750011" ry="1.749989" cx="0" cy="0"/>
    <ellipse transform="matrix(1,0,0,-1,281.17099,-930.789612)" style="stroke:#00e000;stroke-width:0.05mm;fill:none" rx="1.750011" ry="1.749989" cx="0" cy="0"/>
    <ellipse transform="matrix(1,0,0,-1,277.388,-892.088623)" style="stroke:#00e000;stroke-width:0.05mm;fill:none" rx="1.750011" ry="1.749989" cx="0" cy="0"/>
    <ellipse transform="matrix(1,0,0,-1,234.771011,-930.570618)" style="stroke:#00e000;stroke-width:0.05mm;fill:none" rx="1.750011" ry="1.749989" cx="0" cy="0"/>
    <ellipse transform="matrix(1,0,0,-1,361.797974,-965.961609)" style="stroke:#00e000;stroke-width:0.05mm;fill:none" rx="2.185893" ry="1.749989" cx="0" cy="0"/>
    <ellipse transform="matrix(1,0,0,-1,299.643982,-965.659607)" style="stroke:#00e000;stroke-width:0.05mm;fill:none" rx="1.750011" ry="1.749989" cx="0" cy="0"/>
    <ellipse transform="matrix(1,0,0,-1,268.980988,-966.207581)" style="stroke:#00e000;stroke-width:0.05mm;fill:none" rx="2.12631" ry="1.749989" cx="0" cy="0"/>
    <ellipse transform="matrix(0.830996,0.556279,0.556279,-0.830996,268.935974,-887.65863)" style="stroke:#00e000;stroke-width:0.05mm;fill:none" rx="1.750011" ry="1.749989" cx="0" cy="0"/>
    <ellipse transform="matrix(0.830996,0.556279,0.556279,-0.830996,362.492981,-887.838623)" style="stroke:#00e000;stroke-width:0.05mm;fill:none" rx="1.750011" ry="1.749989" cx="0" cy="0"/>
    <ellipse transform="matrix(0.830996,0.556279,0.556279,-0.830996,152.939011,-927.98761)" style="stroke:#00e000;stroke-width:0.05mm;fill:none" rx="1.750011" ry="1.749989" cx="0" cy="0"/>
    <ellipse transform="matrix(0.830996,0.556279,0.556279,-0.830996,187.561996,-963.804626)" style="stroke:#00e000;stroke-width:0.05mm;fill:none" rx="1.750011" ry="1.749989" cx="0" cy="0"/>
    <ellipse transform="matrix(0.830996,0.556279,0.556279,-0.830996,205.948013,-965.797607)" style="stroke:#00e000;stroke-width:0.05mm;fill:none" rx="1.750011" ry="1.749989" cx="0" cy="0"/>
    <ellipse transform="matrix(0.830996,0.556279,0.556279,-0.830996,206.224014,-887.203613)" style="stroke:#00e000;stroke-width:0.05mm;fill:none" rx="1.750011" ry="1.749989" cx="0" cy="0"/>
    <ellipse transform="matrix(0.830996,0.556279,0.556279,-0.830996,299.779999,-887.383606)" style="stroke:#00e000;stroke-width:0.05mm;fill:none" rx="1.750011" ry="1.749989" cx="0" cy="0"/>
    <ellipse transform="matrix(1,0,0,-1,113.369003,-912.50061)" style="stroke:#00e000;stroke-width:0.05mm;fill:none" rx="1.750011" ry="1.749989" cx="0" cy="0"/>
    <ellipse transform="matrix(1,0,0,-1,142.369003,-912.50061)" style="stroke:#00e000;stroke-width:0.05mm;fill:none" rx="1.750011" ry="1.749989" cx="0" cy="0"/>
</svg>
