<?xml version="1.0" encoding="UTF-8"?>
<svg xmlns="http://www.w3.org/2000/svg" xmlns:xlink="http://www.w3.org/1999/xlink" width="122.003mm" height="73.501mm" viewBox="372.998840 -965.751038 122.002991 73.501099">
    <path transform="matrix(1,0,0,-1,0,0)" style="stroke:#00e000;stroke-width:0.05mm;fill:none" d="M482.780212,918.460999L495.00119,899.261414"/>
    <path transform="matrix(1,0,0,-1,0,0)" style="stroke:#00e000;stroke-width:0.05mm;fill:none" d="M482.780212,940.001526L495.00116,958.724609"/>
    <path transform="matrix(1,0,0,-1,372.998993,819.747986)" style="stroke:#00e000;stroke-width:0.05mm;fill:none" d="M44.940548,1782.559326L64.19017,1782.559326"/>
    <path transform="matrix(1,0,0,-1,372.998993,819.747986)" style="stroke:#00e000;stroke-width:0.05mm;fill:none" d="M44.933311,1727.501831L44.933311,1775.235352"/>
    <path transform="matrix(1,0,0,-1,372.998993,819.747986)" style="stroke:#00e000;stroke-width:0.05mm;fill:none" d="M95.403748,1770.241455L95.403748,1727.392334"/>
    <path transform="matrix(1,0,0,-1,372.998993,819.747986)" style="stroke:#00e000;stroke-width:0.05mm;fill:none" d="M95.277496,1727.372192L45.090363,1727.372192"/>
    <path transform="matrix(1,0,0,-1,372.998993,819.747986)" style="stroke:#00e000;stroke-width:0.05mm;fill:none" d="M44.936684,1775.203979L44.936684,1782.546143"/>
    <path transform="matrix(1,0,0,-1,372.998993,819.747986)" style="stroke:#00e000;stroke-width:0.05mm;fill:none" d="M64.191055,1782.564087L64.191055,1770.208618"/>
    <path transform="matrix(1,0,0,-1,372.998993,819.747986)" style="stroke:#00e000;stroke-width:0.05mm;fill:none" d="M64.189606,1770.235107L95.390427,1770.235107"/>
    <path transform="matrix(1,0,0,-1,372.998993,819.747986)" style="stroke:#00e000;stroke-width:0.05mm;fill:none" d="M111.602219,1719.348145C111.602219,1718.381714,110.818718,1717.598145,109.852226,1717.598145C108.885742,1717.598145,108.102226,1718.381714,108.102226,1719.348145C108.102226,1720.314697,108.885742,1721.098145,109.852226,1721.098145C110.818718,1721.098145,111.602219,1720.314697,111.602219,1719.348145z"/>
    <path transform="matrix(1,0,0,-1,372.998993,819.747986)" style="stroke:#00e000;stroke-width:0.05mm;fill:none" d="M13.90275,1778.147949C13.90275,1777.181396,13.119244,1776.397949,12.15277,1776.397949C11.186281,1776.397949,10.402775,1777.181396,10.402775,1778.147949C10.402775,1779.114502,11.186281,1779.897949,12.15277,1779.897949C13.119244,1779.897949,13.90275,1779.114502,13.90275,1778.147949z"/>
    <path transform="matrix(1,0,0,-1,372.998993,819.747986)" style="stroke:#00e000;stroke-width:0.05mm;fill:none" d="M111.602219,1778.147949C111.602219,1777.181396,110.818718,1776.397949,109.852226,1776.397949C108.885742,1776.397949,108.102226,1777.181396,108.102226,1778.147949C108.102226,1779.114502,108.885742,1779.897949,109.852226,1779.897949C110.818718,1779.897949,111.602219,1779.114502,111.602219,1778.147949z"/>
    <path transform="matrix(1,0,0,-1,372.998993,819.747986)" style="stroke:#00e000;stroke-width:0.05mm;fill:none" d="M13.90275,1719.348145C13.90275,1718.381714,13.119244,1717.598145,12.15277,1717.598145C11.186281,1717.598145,10.402775,1718.381714,10.402775,1719.348145C10.402775,1720.314697,11.186281,1721.098145,12.15277,1721.098145C13.119244,1721.098145,13.90275,1720.314697,13.90275,1719.348145z"/>
    <path transform="matrix(1,0,0,-1,372.998993,819.747986)" style="stroke:#00e000;stroke-width:0.05mm;fill:none" d="M0.002822,1711.997925L0.002822,1785.499023"/>
    <path transform="matrix(1,0,0,-1,372.998993,819.747986)" style="stroke:#00e000;stroke-width:0.05mm;fill:none" d="M122.002831,1711.998291L-0.000164,1711.998291"/>
    <path transform="matrix(1,0,0,-1,372.998993,819.747986)" style="stroke:#00e000;stroke-width:0.05mm;fill:none" d="M0.00183,1785.497803L122.001167,1785.497803"/>
    <path transform="matrix(1,0,0,-0.267446,372.998993,-434.382996)" style="stroke:#00e000;stroke-width:0.05mm;fill:none" d="M122.002159,1738.209473L122.002159,1711.999023"/>
    <path transform="matrix(1,0,0,-1,372.998993,819.747986)" style="stroke:#00e000;stroke-width:0.05mm;fill:none" d="M43.403687,1773.230957C43.403687,1772.264404,42.620178,1771.480957,41.653706,1771.480957C40.687218,1771.480957,39.903709,1772.264404,39.903709,1773.230957C39.903709,1774.19751,40.687218,1774.980957,41.653706,1774.980957C42.620178,1774.980957,43.403687,1774.19751,43.403687,1773.230957z"/>
    <path transform="matrix(1,0,0,-1,372.998993,819.747986)" style="stroke:#00e000;stroke-width:0.05mm;fill:none" d="M43.57869,1724.32312C43.57869,1723.356567,42.795181,1722.57312,41.828709,1722.57312C40.862221,1722.57312,40.078712,1723.356567,40.078712,1724.32312C40.078712,1725.289551,40.862221,1726.07312,41.828709,1726.07312C42.795181,1726.07312,43.57869,1725.289551,43.57869,1724.32312z"/>
    <path transform="matrix(1,0,0,-1,372.998993,819.747986)" style="stroke:#00e000;stroke-width:0.05mm;fill:none" d="M101.595543,1724.288086C101.595543,1723.321533,100.812042,1722.538086,99.845566,1722.538086C98.879074,1722.538086,98.095566,1723.321533,98.095566,1724.288086C98.095566,1725.254639,98.879074,1726.038086,99.845566,1726.038086C100.812042,1726.038086,101.595543,1725.254639,101.595543,1724.288086z"/>
    <path transform="matrix(1,0,0,-1,372.998993,819.747986)" style="stroke:#00e000;stroke-width:0.05mm;fill:none" d="M101.428551,1773.231934C101.428551,1772.265381,100.64505,1771.481934,99.678574,1771.481934C98.712082,1771.481934,97.928574,1772.265381,97.928574,1773.231934C97.928574,1774.198486,98.712082,1774.981934,99.678574,1774.981934C100.64505,1774.981934,101.428551,1774.198486,101.428551,1773.231934z"/>
    <circle transform="matrix(0,0.999997,0.999997,0,491.687012,-962.265991)" style="stroke:#00e000;stroke-width:0.05mm;fill:none" r="1.75" cx="0" cy="0"/>
    <circle transform="matrix(0,0.999997,0.999997,0,491.679993,-895.737976)" style="stroke:#00e000;stroke-width:0.05mm;fill:none" r="1.75" cx="0" cy="0"/>
    <circle transform="matrix(0,0.999997,0.999997,0,376.350006,-895.749023)" style="stroke:#00e000;stroke-width:0.05mm;fill:none" r="1.75" cx="0" cy="0"/>
    <circle transform="matrix(0,0.999997,0.999997,0,376.342987,-962.265015)" style="stroke:#00e000;stroke-width:0.05mm;fill:none" r="1.75" cx="0" cy="0"/>
    <path transform="matrix(1,0,0,-1,372.998993,819.747986)" style="stroke:#00e000;stroke-width:0.05mm;fill:none" d="M109.781189,1738.209229L109.781189,1759.749756"/>
    <path transform="matrix(1,0,0,-0.272799,372.998993,-478.667999)" style="stroke:#00e000;stroke-width:0.05mm;fill:none" d="M122.002136,1785.498169L122.002136,1759.744507"/>
</svg>
